<?xml version="1.0" encoding="iso-8859-1"?>
<!-- Generator: Adobe Illustrator 19.0.0, SVG Export Plug-In . SVG Version: 6.00 Build 0)  -->
<svg version="1.1" id="Layer_1" xmlns="http://www.w3.org/2000/svg" xmlns:xlink="http://www.w3.org/1999/xlink" x="0px" y="0px"
	 viewBox="0 0 512.002 512.002" style="enable-background:new 0 0 512.002 512.002;" xml:space="preserve">
<path style="fill:#965500;" d="M184.743,79.085c-5.604-13.12-17.701-22.639-33.189-26.119c-13.774-3.095-41.922-3.824-75.66,26.068
	c-15.457,13.691-38.348,39.786-54.643,67.219c-22.061,37.142-26.975,67.188-14.606,89.305
	c19.028,34.016,50.451,36.157,69.818,36.157c1.474,0,2.88-0.013,4.205-0.024c1.164-0.01,2.283-0.021,3.349-0.021L184.743,79.085z"/>
<path style="fill:#703F00;" d="M327.258,79.085c5.604-13.12,17.701-22.639,33.189-26.119c13.774-3.095,41.922-3.824,75.66,26.068
	c15.457,13.692,38.348,39.786,54.643,67.219c22.062,37.142,26.976,67.188,14.606,89.305c-19.028,34.016-50.451,36.157-69.818,36.157
	c-1.474,0-2.88-0.013-4.205-0.024c-1.164-0.01-2.283-0.02-3.349-0.02L327.258,79.085"/>
<path style="fill:#EFC589;" d="M256.001,479.307c-34.231,0-84.578-2.365-126.416-22.816c-22.644-11.069-40.368-26.37-52.679-45.478
	c-14.004-21.735-21.105-48.571-21.105-79.763c0-45.766,10.598-73.974,24.015-109.686c4.525-12.044,9.203-24.498,14.058-39.084
	c12.426-37.339,27.425-75.814,52.819-104.265C174.034,47.584,209.789,32.694,256,32.694s81.965,14.89,109.307,45.521
	c25.395,28.451,40.394,66.925,52.819,104.265c4.854,14.586,9.533,27.039,14.058,39.084c13.417,35.713,24.015,63.921,24.015,109.686
	c0,31.193-7.1,58.029-21.105,79.763c-12.311,19.108-30.035,34.409-52.679,45.478C340.579,476.942,290.231,479.307,256.001,479.307"
	/>
<g>
	<path style="fill:#333333;" d="M183.287,220.087c0-11.51,9.226-20.83,20.564-20.83c11.352,0,20.577,9.321,20.577,20.83
		c0,11.508-9.225,20.837-20.577,20.837C192.513,240.924,183.287,231.595,183.287,220.087z"/>
	<path style="fill:#333333;" d="M328.715,220.087c0-11.594-9.286-20.993-20.719-20.993c-11.447,0-20.733,9.399-20.733,20.993
		c0,11.594,9.286,20.993,20.733,20.993C319.429,241.08,328.715,231.681,328.715,220.087"/>
</g>
<g>
	<path style="fill:#3E2C27;" d="M256.001,386.665c-19.088,0-36.15-14.994-42.599-21.44c-6.475-6.472-21.535-23.615-21.535-42.989
		c0-15.849,7.894-27.899,22.228-33.929c9.554-4.02,21.696-5.66,41.907-5.66s32.352,1.64,41.907,5.66
		c14.333,6.03,22.228,18.08,22.228,33.929c0,19.374-15.06,36.517-21.535,42.989C292.15,371.671,275.087,386.665,256.001,386.665"/>
	<path style="fill:#3E2C27;" d="M240.331,479.112c5.503,0.144,10.757,0.196,15.67,0.196c4.913,0,10.165-0.052,15.67-0.196v-104.78
		h-31.339L240.331,479.112"/>
</g>
<path style="fill:#BDBDBF;" d="M456.199,331.079c0,0.011,0,0.023,0,0.034C456.199,331.102,456.199,331.091,456.199,331.079
	 M456.199,330.919c0,0.022,0,0.038,0,0.06C456.199,330.958,456.199,330.94,456.199,330.919 M456.199,330.786c0,0.017,0,0.04,0,0.056
	C456.199,330.825,456.199,330.805,456.199,330.786 M456.199,330.649c0,0.02,0,0.038,0,0.057
	C456.199,330.687,456.199,330.669,456.199,330.649 M456.198,330.52c0,0.017,0,0.034,0,0.051
	C456.198,330.554,456.198,330.537,456.198,330.52 M456.198,330.392c0,0.014,0,0.027,0,0.041
	C456.198,330.418,456.198,330.406,456.198,330.392 M456.198,330.265c0,0.012,0,0.019,0,0.029
	C456.198,330.285,456.198,330.275,456.198,330.265 M456.197,330.131c0,0.008,0,0.018,0,0.026
	C456.197,330.148,456.197,330.139,456.197,330.131 M456.197,329.999c0,0.008,0,0.011,0,0.02
	C456.197,330.013,456.197,330.006,456.197,329.999 M456.196,329.867c0,0.005,0,0.008,0,0.014
	C456.196,329.877,456.196,329.871,456.196,329.867 M456.196,329.738v0.003V329.738 M498.052,246.428L498.052,246.428
	L498.052,246.428 M498.153,246.303C498.151,246.305,498.153,246.302,498.153,246.303L498.153,246.303 M498.305,246.113
	c-0.001,0.002-0.002,0.003-0.003,0.004C498.304,246.115,498.303,246.115,498.305,246.113 M498.406,245.986
	c-0.003,0.003-0.003,0.004-0.006,0.007C498.402,245.991,498.404,245.989,498.406,245.986 M498.456,245.923
	c-0.001,0.002-0.003,0.003-0.004,0.005C498.453,245.926,498.455,245.924,498.456,245.923 M498.505,245.86
	c-0.003,0.003-0.003,0.004-0.006,0.007C498.501,245.865,498.503,245.863,498.505,245.86 M498.561,245.791
	c-0.004,0.005-0.008,0.01-0.013,0.016C498.553,245.801,498.557,245.796,498.561,245.791 M498.604,245.735
	c-0.001,0.002-0.001,0.001-0.002,0.002C498.603,245.737,498.603,245.737,498.604,245.735 M498.659,245.666
	c-0.004,0.005-0.007,0.009-0.011,0.014C498.652,245.674,498.655,245.671,498.659,245.666 M498.707,245.604
	c-0.001,0.002-0.003,0.004-0.004,0.005C498.703,245.608,498.706,245.605,498.707,245.604 M498.757,245.541
	c-0.004,0.005-0.007,0.008-0.01,0.014C498.75,245.55,498.754,245.544,498.757,245.541 M498.811,245.472
	c-0.004,0.005-0.008,0.01-0.013,0.016C498.802,245.482,498.806,245.477,498.811,245.472 M498.857,245.412
	c-0.004,0.005-0.008,0.01-0.013,0.016C498.849,245.423,498.853,245.417,498.857,245.412 M498.91,245.343
	c-0.005,0.006-0.009,0.013-0.015,0.019C498.899,245.357,498.907,245.348,498.91,245.343 M498.963,245.275
	c-0.004,0.005-0.01,0.014-0.015,0.019C498.953,245.289,498.959,245.28,498.963,245.275 M499.008,245.217
	c-0.005,0.006-0.011,0.015-0.017,0.022C498.998,245.231,499.003,245.223,499.008,245.217 M499.062,245.146
	c-0.005,0.006-0.013,0.016-0.018,0.023C499.052,245.16,499.057,245.154,499.062,245.146 M499.107,245.088
	c-0.005,0.007-0.011,0.016-0.017,0.022C499.096,245.102,499.101,245.097,499.107,245.088 M499.162,245.017
	c-0.006,0.008-0.013,0.017-0.019,0.025C499.148,245.034,499.155,245.026,499.162,245.017 M499.211,244.952
	c-0.006,0.008-0.011,0.016-0.018,0.024C499.198,244.969,499.204,244.961,499.211,244.952 M499.259,244.891
	c-0.006,0.008-0.014,0.017-0.02,0.026C499.246,244.906,499.251,244.9,499.259,244.891 M499.313,244.819
	c-0.006,0.008-0.015,0.02-0.022,0.028C499.298,244.838,499.306,244.828,499.313,244.819 M499.365,244.75
	c-0.01,0.014-0.021,0.027-0.031,0.041C499.344,244.777,499.355,244.763,499.365,244.75 M499.41,244.69
	c-0.006,0.008-0.015,0.02-0.022,0.028C499.397,244.709,499.404,244.7,499.41,244.69 M499.462,244.621
	c-0.01,0.014-0.02,0.026-0.03,0.04C499.443,244.647,499.452,244.635,499.462,244.621 M499.506,244.563
	c-0.007,0.01-0.014,0.019-0.022,0.028C499.493,244.582,499.5,244.572,499.506,244.563 M499.561,244.492
	c-0.01,0.014-0.019,0.025-0.029,0.04C499.541,244.517,499.55,244.505,499.561,244.492 M499.602,244.436
	c-0.006,0.008-0.011,0.016-0.019,0.024C499.59,244.452,499.596,244.444,499.602,244.436 M499.658,244.362
	c-0.006,0.008-0.014,0.019-0.02,0.027C499.644,244.38,499.65,244.372,499.658,244.362 M499.704,244.301
	c-0.007,0.01-0.016,0.021-0.023,0.03C499.688,244.321,499.696,244.31,499.704,244.301 M499.754,244.233
	c-0.007,0.01-0.014,0.019-0.022,0.029C499.739,244.253,499.747,244.242,499.754,244.233 M499.806,244.163
	c-0.009,0.013-0.02,0.026-0.028,0.039C499.787,244.188,499.796,244.176,499.806,244.163 M499.849,244.104
	c-0.006,0.008-0.014,0.019-0.021,0.027C499.836,244.122,499.843,244.114,499.849,244.104 M499.904,244.031
	c-0.007,0.01-0.014,0.018-0.021,0.028C499.891,244.049,499.897,244.04,499.904,244.031 M499.952,243.965
	c-0.009,0.013-0.02,0.026-0.028,0.039C499.934,243.991,499.943,243.978,499.952,243.965 M500,243.9
	c-0.007,0.01-0.015,0.02-0.022,0.03C499.985,243.92,499.993,243.91,500,243.9 M500.055,243.826
	c-0.011,0.016-0.023,0.031-0.034,0.047C500.032,243.857,500.042,243.843,500.055,243.826 M500.096,243.769
	c-0.009,0.013-0.015,0.02-0.023,0.032C500.08,243.792,500.089,243.779,500.096,243.769 M500.151,243.695
	c-0.013,0.018-0.023,0.031-0.036,0.049C500.127,243.727,500.138,243.711,500.151,243.695 M500.189,243.641
	c-0.007,0.01-0.014,0.019-0.021,0.029C500.176,243.66,500.183,243.651,500.189,243.641 M500.245,243.566
	c-0.006,0.008-0.015,0.02-0.021,0.029C500.23,243.586,500.238,243.577,500.245,243.566 M500.299,243.491
	c-0.012,0.016-0.023,0.031-0.034,0.047C500.276,243.523,500.288,243.507,500.299,243.491 M500.341,243.434
	c-0.007,0.01-0.016,0.022-0.023,0.032C500.326,243.454,500.333,243.445,500.341,243.434 M500.395,243.359
	c-0.011,0.016-0.024,0.033-0.036,0.049C500.37,243.393,500.384,243.375,500.395,243.359 M500.435,243.304
	c-0.007,0.01-0.015,0.02-0.022,0.03C500.421,243.323,500.427,243.315,500.435,243.304 M500.489,243.228
	c-0.007,0.01-0.015,0.02-0.022,0.03C500.476,243.248,500.481,243.239,500.489,243.228 M500.542,243.155
	c-0.011,0.016-0.023,0.031-0.034,0.048C500.519,243.187,500.53,243.17,500.542,243.155 M500.584,243.096
	c-0.007,0.01-0.014,0.02-0.022,0.03C500.57,243.116,500.577,243.105,500.584,243.096 M500.635,243.023
	c-0.01,0.015-0.021,0.029-0.031,0.043C500.615,243.052,500.626,243.038,500.635,243.023 M500.676,242.967
	c-0.006,0.009-0.013,0.017-0.019,0.026C500.664,242.983,500.671,242.975,500.676,242.967 M500.732,242.889
	c-0.006,0.009-0.014,0.02-0.021,0.028C500.717,242.909,500.725,242.898,500.732,242.889 M500.777,242.826
	c-0.007,0.01-0.017,0.024-0.024,0.034C500.762,242.846,500.768,242.838,500.777,242.826 M500.827,242.756
	c-0.006,0.009-0.015,0.021-0.021,0.03C500.812,242.775,500.819,242.765,500.827,242.756 M500.879,242.681
	c-0.01,0.015-0.021,0.03-0.031,0.045C500.857,242.712,500.868,242.696,500.879,242.681 M500.921,242.622
	c-0.006,0.009-0.016,0.022-0.022,0.03C500.906,242.643,500.913,242.632,500.921,242.622 M500.974,242.547
	c-0.007,0.01-0.017,0.024-0.024,0.034C500.957,242.57,500.966,242.558,500.974,242.547 M501.016,242.486
	c-0.007,0.01-0.015,0.021-0.023,0.032C501.001,242.507,501.007,242.498,501.016,242.486 M501.068,242.412
	c-0.006,0.009-0.014,0.02-0.02,0.028C501.054,242.431,501.061,242.422,501.068,242.412 M501.118,242.34
	c-0.01,0.015-0.02,0.028-0.029,0.043C501.098,242.368,501.108,242.354,501.118,242.34 M501.16,242.279
	c-0.005,0.007-0.013,0.019-0.018,0.026C501.148,242.297,501.154,242.289,501.16,242.279 M501.213,242.204
	c-0.007,0.01-0.015,0.021-0.022,0.032C501.198,242.226,501.206,242.214,501.213,242.204 M501.255,242.143
	c-0.005,0.007-0.014,0.019-0.019,0.026C501.242,242.161,501.249,242.152,501.255,242.143 M501.308,242.065
	c-0.007,0.01-0.013,0.019-0.021,0.029C501.295,242.086,501.303,242.074,501.308,242.065 M501.352,242.002
	c-0.007,0.01-0.015,0.021-0.022,0.031C501.339,242.023,501.344,242.014,501.352,242.002 M501.4,241.932
	c-0.006,0.009-0.011,0.016-0.018,0.025C501.389,241.949,501.394,241.941,501.4,241.932 M501.45,241.859
	c-0.006,0.009-0.013,0.019-0.019,0.028C501.438,241.878,501.443,241.87,501.45,241.859 M501.494,241.794
	c-0.006,0.009-0.013,0.018-0.019,0.027C501.484,241.811,501.488,241.805,501.494,241.794 M501.545,241.72
	c-0.005,0.007-0.01,0.016-0.016,0.023C501.536,241.735,501.539,241.73,501.545,241.72 M501.587,241.66
	c-0.005,0.007-0.01,0.016-0.016,0.023C501.578,241.674,501.581,241.668,501.587,241.66 M501.638,241.585
	c-0.005,0.007-0.01,0.015-0.015,0.022C501.628,241.599,501.633,241.592,501.638,241.585 M501.689,241.509
	c-0.007,0.011-0.014,0.021-0.022,0.031C501.674,241.531,501.682,241.52,501.689,241.509 M501.732,241.445
	c-0.006,0.009-0.01,0.016-0.017,0.024C501.722,241.46,501.727,241.454,501.732,241.445 M501.784,241.37
	c-0.005,0.007-0.009,0.014-0.015,0.021C501.773,241.386,501.779,241.377,501.784,241.37 M501.825,241.308
	c-0.005,0.007-0.01,0.016-0.016,0.023C501.815,241.322,501.82,241.315,501.825,241.308 M501.877,241.231
	c-0.005,0.007-0.01,0.016-0.016,0.023C501.866,241.247,501.872,241.239,501.877,241.231 M501.924,241.161
	c-0.006,0.009-0.011,0.018-0.018,0.027C501.911,241.18,501.917,241.171,501.924,241.161 M501.971,241.091
	c-0.005,0.007-0.011,0.017-0.017,0.024C501.96,241.107,501.964,241.1,501.971,241.091 M502.021,241.017
	c-0.005,0.007-0.008,0.013-0.014,0.02C502.011,241.031,502.017,241.023,502.021,241.017 M502.064,240.951
	c-0.005,0.007-0.013,0.019-0.018,0.026C502.052,240.969,502.058,240.96,502.064,240.951 M502.114,240.876
	c-0.005,0.007-0.01,0.015-0.015,0.023C502.104,240.892,502.108,240.884,502.114,240.876 M502.155,240.814
	c-0.004,0.005-0.008,0.013-0.013,0.019C502.147,240.826,502.151,240.82,502.155,240.814 M502.207,240.735
	c-0.005,0.007-0.01,0.016-0.015,0.023C502.197,240.751,502.202,240.743,502.207,240.735 M502.256,240.661
	c-0.006,0.009-0.01,0.016-0.017,0.025C502.244,240.68,502.251,240.669,502.256,240.661 M502.3,240.595
	c-0.005,0.007-0.01,0.016-0.016,0.023C502.289,240.611,502.294,240.603,502.3,240.595 M502.35,240.518
	c-0.005,0.007-0.009,0.015-0.015,0.022C502.34,240.534,502.346,240.525,502.35,240.518 M502.393,240.453
	c-0.005,0.007-0.01,0.016-0.016,0.023C502.382,240.47,502.387,240.462,502.393,240.453 M502.445,240.373
	c-0.006,0.009-0.013,0.019-0.019,0.028C502.433,240.39,502.439,240.383,502.445,240.373 M502.49,240.305
	c-0.006,0.009-0.013,0.019-0.019,0.028C502.478,240.323,502.482,240.315,502.49,240.305 M502.535,240.235
	c-0.005,0.007-0.01,0.016-0.015,0.023C502.525,240.251,502.531,240.243,502.535,240.235 M502.583,240.162
	c-0.004,0.005-0.006,0.01-0.01,0.016C502.575,240.173,502.58,240.167,502.583,240.162 M502.627,240.094
	c-0.004,0.005-0.008,0.013-0.011,0.019C502.618,240.106,502.622,240.1,502.627,240.094 M502.676,240.018
	c-0.004,0.005-0.007,0.011-0.011,0.017C502.667,240.03,502.673,240.023,502.676,240.018 M502.717,239.954
	c-0.002,0.004-0.004,0.007-0.007,0.01C502.713,239.96,502.714,239.958,502.717,239.954 M502.769,239.873
	c-0.005,0.007-0.008,0.013-0.013,0.02C502.759,239.887,502.764,239.88,502.769,239.873 M502.816,239.8
	c-0.004,0.005-0.005,0.008-0.009,0.015C502.809,239.81,502.813,239.804,502.816,239.8 M502.86,239.731
	c-0.004,0.005-0.006,0.01-0.01,0.017C502.852,239.743,502.856,239.736,502.86,239.731 M502.91,239.653
	c-0.004,0.006-0.008,0.013-0.011,0.019C502.901,239.666,502.906,239.658,502.91,239.653 M502.95,239.588
	c-0.002,0.004-0.005,0.008-0.008,0.013C502.946,239.597,502.947,239.593,502.95,239.588 M503.002,239.508
	c-0.004,0.006-0.009,0.015-0.013,0.02C502.993,239.522,502.997,239.514,503.002,239.508 M503.044,239.441
	c-0.001,0.002-0.002,0.003-0.003,0.005C503.042,239.445,503.043,239.443,503.044,239.441 M503.093,239.364
	c-0.004,0.006-0.007,0.012-0.01,0.018C503.086,239.375,503.089,239.37,503.093,239.364 M503.142,239.286
	c-0.003,0.006-0.007,0.01-0.01,0.017C503.135,239.297,503.137,239.293,503.142,239.286 M503.184,239.219
	c-0.003,0.006-0.007,0.011-0.011,0.018C503.177,239.231,503.18,239.226,503.184,239.219 M503.234,239.14
	c-0.003,0.006-0.008,0.013-0.011,0.019C503.226,239.153,503.229,239.146,503.234,239.14 M503.274,239.075
	c-0.001,0.002-0.003,0.005-0.004,0.007C503.271,239.082,503.273,239.076,503.274,239.075 M503.323,238.996
	c-0.003,0.006-0.005,0.008-0.008,0.015C503.318,239.005,503.321,239.001,503.323,238.996 M503.37,238.921
	c-0.002,0.004-0.004,0.007-0.007,0.011C503.366,238.927,503.368,238.926,503.37,238.921 M503.414,238.852
	c-0.001,0.002-0.005,0.008-0.006,0.01C503.41,238.857,503.411,238.856,503.414,238.852 M503.463,238.772
	c-0.002,0.004-0.006,0.009-0.008,0.014C503.457,238.781,503.46,238.778,503.463,238.772 M503.505,238.704l-0.003,0.004
	C503.503,238.708,503.504,238.707,503.505,238.704 M503.554,238.624c-0.002,0.004-0.006,0.01-0.008,0.014
	C503.549,238.633,503.551,238.629,503.554,238.624 M503.598,238.553l-0.003,0.004C503.596,238.556,503.597,238.555,503.598,238.553
	 M503.645,238.477c-0.002,0.004-0.006,0.009-0.008,0.014C503.64,238.486,503.642,238.482,503.645,238.477 M503.692,238.4
	c-0.002,0.004-0.004,0.006-0.006,0.01C503.687,238.408,503.69,238.404,503.692,238.4 M503.735,238.329
	c-0.001,0.002-0.004,0.007-0.005,0.008C503.732,238.336,503.733,238.333,503.735,238.329 M503.784,238.25
	c-0.003,0.006-0.004,0.007-0.008,0.013C503.779,238.258,503.781,238.254,503.784,238.25 M503.874,238.101
	c-0.002,0.004-0.005,0.009-0.008,0.014C503.869,238.11,503.872,238.106,503.874,238.101 M503.922,238.022
	c-0.002,0.004-0.005,0.009-0.008,0.014C503.917,238.031,503.919,238.028,503.922,238.022 M503.964,237.953
	c-0.002,0.004-0.003,0.005-0.005,0.008C503.961,237.959,503.962,237.956,503.964,237.953 M504.011,237.875
	c-0.002,0.004-0.003,0.004-0.005,0.008C504.008,237.88,504.009,237.878,504.011,237.875 M504.103,237.722
	c-0.002,0.004-0.005,0.008-0.007,0.013C504.096,237.732,504.101,237.726,504.103,237.722 M504.147,237.648
	c-0.001,0.002-0.002,0.003-0.003,0.005C504.144,237.652,504.146,237.65,504.147,237.648 M504.191,237.573
	c-0.001,0.002-0.005,0.008-0.006,0.01C504.187,237.579,504.19,237.576,504.191,237.573 M504.237,237.496
	c-0.001,0.002-0.003,0.004-0.004,0.006C504.234,237.501,504.236,237.498,504.237,237.496 M504.281,237.423l-0.002,0.004
	C504.279,237.425,504.28,237.425,504.281,237.423 M504.328,237.343c-0.002,0.004-0.003,0.005-0.005,0.009
	C504.324,237.35,504.326,237.346,504.328,237.343 M504.371,237.271L504.371,237.271L504.371,237.271 M504.418,237.191
	c-0.001,0.002-0.003,0.005-0.004,0.007C504.415,237.196,504.416,237.194,504.418,237.191 M504.463,237.115
	c-0.001,0.002-0.002,0.003-0.003,0.005C504.461,237.118,504.462,237.116,504.463,237.115 M504.506,237.04L504.506,237.04
	L504.506,237.04 M504.555,236.958c-0.001,0.002-0.005,0.008-0.006,0.01C504.551,236.965,504.553,236.961,504.555,236.958
	 M504.645,236.802c-0.003,0.006-0.005,0.009-0.009,0.016C504.64,236.813,504.643,236.807,504.645,236.802 M504.688,236.729
	c-0.001,0.002-0.001,0.002-0.002,0.004C504.687,236.731,504.687,236.73,504.688,236.729 M504.733,236.652
	c-0.002,0.004-0.003,0.005-0.005,0.008C504.729,236.657,504.73,236.655,504.733,236.652 M504.78,236.57
	c-0.002,0.004-0.004,0.007-0.006,0.011C504.775,236.579,504.778,236.574,504.78,236.57 M504.82,236.499L504.82,236.499
	L504.82,236.499 M504.868,236.417c-0.002,0.004-0.003,0.006-0.006,0.01C504.864,236.424,504.866,236.42,504.868,236.417
	 M504.911,236.343l-0.001,0.001L504.911,236.343 M504.957,236.262c-0.001,0.002-0.005,0.008-0.006,0.01
	C504.953,236.269,504.955,236.265,504.957,236.262 M505.004,236.179c-0.003,0.006-0.004,0.008-0.008,0.015
	C504.999,236.188,505.002,236.184,505.004,236.179 M505.045,236.107c-0.001,0.002-0.002,0.004-0.003,0.006
	C505.043,236.112,505.044,236.11,505.045,236.107 M505.093,236.023c-0.002,0.004-0.006,0.01-0.008,0.015
	C505.088,236.033,505.09,236.028,505.093,236.023 M505.181,235.868c-0.002,0.004-0.006,0.01-0.008,0.015
	C505.176,235.878,505.179,235.872,505.181,235.868 M505.227,235.787c-0.002,0.004-0.004,0.007-0.006,0.012
	C505.223,235.794,505.224,235.792,505.227,235.787 M505.268,235.713c-0.002,0.004-0.004,0.007-0.006,0.011
	C505.264,235.719,505.265,235.718,505.268,235.713 M505.314,235.63c-0.002,0.004-0.005,0.009-0.007,0.014
	C505.309,235.639,505.313,235.633,505.314,235.63 M435.886,78.84c0.002,0.002,0.001,0.001,0.003,0.003
	C435.887,78.84,435.888,78.841,435.886,78.84 M435.628,78.611c0.045,0.04,0.09,0.079,0.136,0.119
	C435.718,78.69,435.673,78.652,435.628,78.611 M360.109,53.043c-0.001,0-0.001,0-0.002,0
	C360.108,53.043,360.108,53.043,360.109,53.043 M360.248,53.011c-0.003,0.001-0.006,0.001-0.009,0.002
	C360.242,53.013,360.245,53.012,360.248,53.011 M360.385,52.98c-0.004,0.001-0.008,0.002-0.013,0.003
	C360.376,52.982,360.382,52.981,360.385,52.98 M373.804,51.529c-5.287,0-9.773,0.635-13.315,1.428
	C364.032,52.164,368.519,51.529,373.804,51.529 M373.806,51.529L373.806,51.529c0.007,0,0.015,0,0.022,0
	C373.821,51.529,373.814,51.529,373.806,51.529 M257.537,32.7c0.008,0,0.019,0,0.027,0C257.556,32.7,257.546,32.7,257.537,32.7
	 M257.416,32.7c0.012,0,0.028,0,0.04,0C257.442,32.7,257.429,32.7,257.416,32.7 M257.236,32.698c0.02,0,0.034,0,0.054,0
	C257.272,32.699,257.256,32.699,257.236,32.698 M257.112,32.698c0.02,0,0.044,0,0.064,0
	C257.154,32.698,257.133,32.698,257.112,32.698 M256.985,32.697c0.023,0,0.048,0,0.071,0
	C257.032,32.697,257.009,32.697,256.985,32.697 M256.824,32.697c0.04,0,0.072,0,0.112,0
	C256.897,32.697,256.862,32.697,256.824,32.697 M256.699,32.696c0.025,0,0.05,0,0.076,0
	C256.75,32.696,256.726,32.696,256.699,32.696 M256.567,32.696c0.028,0,0.057,0,0.086,0
	C256.624,32.696,256.595,32.696,256.567,32.696 M256.412,32.695c0.04,0,0.08,0,0.12,0C256.493,32.696,256.451,32.695,256.412,32.695
	 M256.288,32.695c0.031,0,0.063,0,0.094,0C256.35,32.695,256.32,32.695,256.288,32.695 M256.157,32.695c0.028,0,0.062,0,0.09,0
	C256.218,32.695,256.188,32.695,256.157,32.695 M256.001,32.695L256.001,32.695c0.042,0,0.081,0,0.124,0
	C256.083,32.695,256.041,32.695,256.001,32.695"/>
<path style="fill:#B19267;" d="M307.995,241.08c-11.447,0-20.733-9.399-20.733-20.993c0-11.594,9.286-20.993,20.733-20.993
	c11.434,0,20.719,9.399,20.719,20.993C328.715,231.681,319.429,241.08,307.995,241.08 M256.001,32.695v249.952
	c20.211,0,32.352,1.64,41.907,5.66c14.333,6.03,22.228,18.08,22.228,33.929c0,19.374-15.06,36.517-21.535,42.989
	c-4.607,4.604-14.626,13.568-26.93,18.315v95.572c-5.504,0.144-10.757,0.196-15.67,0.196c34.231,0,84.578-2.365,126.416-22.816
	c22.644-11.069,40.368-26.37,52.679-45.478c14.004-21.735,21.105-48.571,21.105-79.763l0,0c0-0.046,0-0.091,0-0.137
	c0-0.011,0-0.023,0-0.034c0-0.033,0-0.067,0-0.1c0-0.022,0-0.038,0-0.06c0-0.026,0-0.05,0-0.076c0-0.017,0-0.04,0-0.056
	c0-0.026,0-0.054,0-0.079c0-0.02,0-0.038,0-0.057c0-0.026,0-0.052,0-0.078c0-0.017,0-0.034,0-0.051c0-0.028,0-0.059,0-0.087
	c0-0.014,0-0.027,0-0.041c0-0.031,0-0.066,0-0.097c0-0.011,0-0.019,0-0.029c0-0.038,0-0.071,0-0.108c0-0.008,0-0.018,0-0.026
	c0-0.038,0-0.075,0-0.112c0-0.008,0-0.011,0-0.02c0-0.04,0-0.078,0-0.119c0-0.005,0-0.008,0-0.014c0-0.043,0-0.084-0.001-0.126
	v-0.003c-0.118-22.833-2.901-41.286-7.35-58.562c0.002,0,0.003,0,0.005,0c-4.296-16.682-10.149-32.26-16.667-49.611
	c-4.525-12.044-9.203-24.498-14.058-39.084c-12.426-37.339-27.425-75.814-52.819-104.265c-6.407-7.178-13.274-13.49-20.632-18.95
	c-0.004,0.002-0.008,0.005-0.011,0.007c-23.684-17.575-52.42-26.319-87.1-26.573c-0.008,0-0.019,0-0.027,0
	c-0.028,0-0.053,0-0.081-0.001c-0.012,0-0.028,0-0.04,0c-0.041,0-0.084-0.001-0.124-0.001c-0.02,0-0.034,0-0.054,0
	c-0.02,0-0.042,0-0.062,0c-0.02,0-0.044,0-0.064,0c-0.02,0-0.037,0-0.055,0c-0.023,0-0.048,0-0.071,0c-0.015,0-0.034,0-0.049,0
	c-0.04,0-0.072,0-0.112,0c-0.015,0-0.033,0-0.049,0c-0.025,0-0.05,0-0.076,0c-0.015,0-0.031,0-0.047,0c-0.028,0-0.057,0-0.086,0
	c-0.013,0-0.022,0-0.035,0c-0.04,0-0.08,0-0.12,0c-0.01,0-0.019,0-0.03,0c-0.031,0-0.063,0-0.094,0c-0.013,0-0.027,0-0.041,0
	c-0.028,0-0.062,0-0.09,0c-0.01,0-0.023,0-0.033,0C256.082,32.695,256.042,32.695,256.001,32.695"/>
<path style="fill:#2E211D;" d="M297.907,288.307c-9.555-4.02-21.696-5.66-41.907-5.66v91.683v104.977
	c4.913,0,10.165-0.052,15.67-0.196v-95.572c12.304-4.748,22.324-13.711,26.93-18.315c6.475-6.472,21.535-23.615,21.535-42.989
	C320.135,306.387,312.241,294.338,297.907,288.307z"/>
<g>
</g>
<g>
</g>
<g>
</g>
<g>
</g>
<g>
</g>
<g>
</g>
<g>
</g>
<g>
</g>
<g>
</g>
<g>
</g>
<g>
</g>
<g>
</g>
<g>
</g>
<g>
</g>
<g>
</g>
</svg>
