<svg width="71" height="23" xmlns="http://www.w3.org/2000/svg">
  <path d="M0 8.77344C0 3.93684 4.083 0 8.938 0c2.684 0 4.595 1.04723 6.034 2.41531l-1.695 1.69291c-1.032-.96254-2.429-1.71184-4.339-1.71184-3.545 0-6.317 2.84676-6.317 6.37706s2.772 6.38105 6.317 6.38105c2.297 0 3.607-.92169 4.446-1.75668.687-.68554 1.137-1.67 1.307-3.01914H8.938V7.98129h8.097c.085.43045.129.9456.129 1.5006 0 1.79654-.494 4.02453-2.084 5.60683-1.547 1.60324-3.524 2.46215-6.142 2.46215-4.855 0-8.938-3.93983-8.938-8.77743zm23.693 6.30291c-1.719 0-3.198-1.41292-3.198-3.42568 0-2.03169 1.479-3.42268 3.198-3.42268 1.718 0 3.201 1.391 3.201 3.42268 0 2.01276-1.483 3.42568-3.201 3.42568M23.693 6C20.557 6 18 8.37546 18 11.65067c0 3.2563 2.557 5.65167 5.693 5.65167 3.137 0 5.692-2.39538 5.692-5.65167C29.385 8.37546 26.83 6 23.693 6m13.003 9.07635c-1.719 0-3.2-1.41292-3.2-3.42568 0-2.03169 1.481-3.42268 3.2-3.42268 1.718 0 3.2 1.391 3.2 3.42268 0 2.01276-1.482 3.42568-3.2 3.42568M36.696 6C33.559 6 31 8.37546 31 11.65067c0 3.2563 2.559 5.65167 5.696 5.65167 3.135 0 5.692-2.39538 5.692-5.65167C42.388 8.37546 39.831 6 36.696 6m11.952 9.07635c-1.716 0-3.156-1.43185-3.156-3.40376 0-1.99083 1.44-3.4446 3.156-3.4446 1.697 0 3.031 1.45377 3.031 3.4446 0 1.97191-1.334 3.40376-3.031 3.40376zm2.858-8.73259v.9187h-.085C50.861 6.60084 49.789 6 48.434 6 45.6 6 43 8.48506 43 11.6726c0 3.1686 2.6 5.62974 5.434 5.62974 1.355 0 2.427-.59884 2.987-1.28637h.085v.81607c0 2.16222-1.161 3.31607-3.028 3.31607-1.526 0-2.471-1.09207-2.857-2.01077l-2.171.89976c.624 1.49861 2.278 3.337 5.028 3.337 2.922 0 5.391-1.71284 5.391-5.88483V6.34377h-2.363zM56 16.60826h2.49V0H56zm9.434-8.42511c.987 0 1.825.49422 2.104 1.19869l-5.069 2.09645c-.065-2.18215 1.697-3.29514 2.965-3.29514m.192 6.8912c-1.267 0-2.169-.57791-2.748-1.71084l7.582-3.12476-.259-.64269C69.729 8.33261 68.29 6 65.347 6 62.427 6 60 8.29176 60 11.64968c0 3.1676 2.404 5.65067 5.626 5.65067 2.599 0 4.103-1.5833 4.727-2.504l-1.934-1.28437c-.643.94161-1.525 1.56238-2.793 1.56238" fill="#757575" fill-rule="evenodd"/>
</svg>
